<?xml version="1.0" encoding="utf-8"?>
<!-- Generator: Adobe Illustrator 21.1.0, SVG Export Plug-In . SVG Version: 6.00 Build 0)  -->
<svg version="1.1" id="Layer_1" xmlns="http://www.w3.org/2000/svg" xmlns:xlink="http://www.w3.org/1999/xlink" x="0px" y="0px"
	 viewBox="0 0 157.2 50" style="enable-background:new 0 0 157.2 50;" xml:space="preserve">
<style type="text/css">
	.st0{fill:#DD2376;}
</style>
<g>
	<g>
		<circle class="st0" cx="28.3" cy="9.2" r="1.7"/>
		<path class="st0" d="M25.4,11.5c-7.8-3.9-14.3-2-16.3,0.1c19.3-6.2,16.7,19.3,19.3,29.8v0c0,0,0,0,0,0c0,0,0,0,0,0v0
			c2.6-10.5,0-36,19.3-29.8c-2-2.1-8.5-4-16.3-0.1C29.4,12.4,27.2,12.4,25.4,11.5z"/>
		<path class="st0" d="M7.2,13.9c-4.1,7.5-3.1,24.9,19,30.4c-11.6-6.6-16.1-14.8-11.8-19.6c2.5-2.8,9.9-4.6,13.9-2.6
			C21.2,16.1,7.1,25.9,7.2,13.9z"/>
		<circle class="st0" cx="11.3" cy="16.5" r="1.7"/>
		<path class="st0" d="M49.5,13.9c4.1,7.5,3.1,24.9-19,30.4C42,37.7,46.5,29.5,42.2,24.7c-2.5-2.8-9.9-4.6-13.9-2.6
			C35.4,16.1,49.5,25.9,49.5,13.9z"/>
		<circle class="st0" cx="45.2" cy="16.5" r="1.7"/>
	</g>
	<g>
		<path class="st0" d="M63.2,15.8h2.2v1.4h-2.2l0,5.5c0,0.4,0,0.7,0.1,0.9c0.1,0.2,0.2,0.4,0.4,0.5c0.2,0.1,0.4,0.1,0.6,0.1
			c0.3,0,0.5,0,0.7-0.1s0.4-0.1,0.6-0.2l0.4,1.1c-0.3,0.2-0.6,0.3-0.9,0.4c-0.3,0.1-0.7,0.1-1.1,0.1c-0.4,0-0.8,0-1.1-0.2
			s-0.6-0.3-0.8-0.5c-0.2-0.2-0.4-0.6-0.5-1c-0.1-0.4-0.2-0.9-0.2-1.5l0-5.2H60v-1.4h1.5v-2.3l1.7-0.8
			C63.2,12.8,63.2,15.8,63.2,15.8z"/>
		<path class="st0" d="M69.1,20.8c0,0.3,0,0.5,0.1,0.7s0.1,0.4,0.2,0.6c0.2,0.6,0.6,1.1,1.1,1.4c0.5,0.3,1.1,0.5,1.7,0.5
			c0.5,0,1-0.1,1.4-0.2c0.5-0.1,1-0.4,1.5-0.6l0.7,1.2c-0.6,0.4-1.2,0.7-1.9,1s-1.3,0.3-2,0.3c-0.6,0-1.2-0.1-1.8-0.3
			c-0.5-0.2-1-0.5-1.4-1s-0.7-0.9-0.9-1.6c-0.2-0.6-0.3-1.4-0.3-2.2c0-0.7,0.1-1.3,0.3-1.9c0.2-0.6,0.5-1.1,0.8-1.6
			c0.4-0.4,0.8-0.8,1.4-1.1c0.6-0.3,1.2-0.4,1.9-0.4c0.7,0,1.3,0.1,1.8,0.3c0.5,0.2,0.9,0.5,1.2,0.9c0.3,0.4,0.5,0.8,0.7,1.2
			s0.3,0.9,0.3,1.4c0,0.2,0.1,0.5,0.1,0.7c0,0.2,0,0.5,0,0.7C75.9,20.8,69.1,20.8,69.1,20.8z M71.7,17c-0.4,0-0.7,0.1-1,0.2
			c-0.3,0.1-0.5,0.3-0.8,0.5c-0.2,0.2-0.4,0.5-0.5,0.8s-0.2,0.6-0.3,1h4.9c0-0.4-0.1-0.7-0.2-1c-0.1-0.3-0.2-0.6-0.4-0.8
			c-0.2-0.2-0.4-0.4-0.7-0.5S72.1,17,71.7,17z"/>
		<path class="st0" d="M83.8,24.4c-0.4,0.3-0.8,0.6-1.2,0.8c-0.4,0.2-0.9,0.3-1.5,0.3c-0.5,0-0.9-0.1-1.3-0.2
			c-0.4-0.1-0.7-0.3-1-0.6c-0.3-0.3-0.5-0.5-0.7-0.9c-0.2-0.3-0.2-0.7-0.2-1.1c0-0.4,0.1-0.8,0.2-1.1c0.1-0.3,0.3-0.6,0.5-0.8
			c0.2-0.2,0.4-0.4,0.7-0.6s0.5-0.3,0.8-0.4s0.6-0.2,0.9-0.2c0.3,0,0.6-0.1,0.9-0.1c0.4,0,0.8,0,1.1,0s0.6,0.1,0.8,0.1l0-0.8
			c0-0.3,0-0.6-0.1-0.9c-0.1-0.2-0.2-0.5-0.4-0.6s-0.4-0.3-0.6-0.4c-0.2-0.1-0.5-0.1-0.8-0.1c-0.3,0-0.6,0-0.8,0.1
			c-0.3,0-0.5,0.1-0.7,0.2c-0.2,0.1-0.4,0.1-0.6,0.2s-0.4,0.2-0.5,0.3l-0.6-1.2c0.2-0.1,0.5-0.3,0.7-0.4s0.6-0.2,0.8-0.3
			c0.3-0.1,0.6-0.2,0.9-0.2c0.3-0.1,0.6-0.1,0.9-0.1c0.6,0,1,0.1,1.5,0.2c0.4,0.1,0.8,0.3,1.1,0.6s0.5,0.6,0.7,1
			c0.2,0.4,0.2,0.9,0.2,1.5l0,4.7h1.1v1.6h-2.8L83.8,24.4L83.8,24.4z M81.5,24.2c0.2,0,0.5,0,0.7-0.1c0.2-0.1,0.4-0.1,0.6-0.2
			c0.2-0.1,0.4-0.2,0.6-0.3c0.2-0.1,0.3-0.3,0.4-0.4l0-2.1h-2c-0.3,0-0.6,0-0.9,0.1c-0.3,0.1-0.5,0.2-0.7,0.3
			c-0.2,0.1-0.4,0.3-0.5,0.5c-0.1,0.2-0.2,0.4-0.2,0.7c0,0.2,0,0.5,0.1,0.7c0.1,0.2,0.2,0.3,0.4,0.5c0.2,0.1,0.4,0.2,0.6,0.3
			C80.9,24.1,81.2,24.2,81.5,24.2z"/>
		<path class="st0" d="M88.5,15.8h3v1.1h0c0.2-0.2,0.4-0.3,0.7-0.5c0.2-0.2,0.5-0.3,0.7-0.4c0.3-0.1,0.5-0.2,0.8-0.3
			c0.3-0.1,0.6-0.1,0.8-0.1c0.7,0,1.3,0.1,1.8,0.4c0.5,0.3,0.9,0.6,1.1,1.2c0.2-0.2,0.5-0.4,0.7-0.6c0.3-0.2,0.5-0.4,0.8-0.5
			c0.3-0.1,0.6-0.3,0.9-0.3c0.3-0.1,0.6-0.1,1-0.1c0.5,0,1,0.1,1.4,0.2c0.4,0.1,0.8,0.4,1,0.6c0.3,0.3,0.5,0.7,0.7,1.1
			s0.2,1,0.2,1.6v4.5h1.3v1.6H101v-1.6h1.3v-4.3c0-0.7-0.2-1.3-0.6-1.7s-0.9-0.6-1.6-0.6c-0.4,0-0.8,0.1-1.3,0.3
			c-0.4,0.2-0.8,0.4-1.1,0.7v5.5h1.3v1.6h-4.4v-1.6H96v-4.3c0-0.7-0.2-1.3-0.6-1.7c-0.4-0.4-0.9-0.6-1.6-0.6c-0.4,0-0.8,0.1-1.2,0.3
			c-0.4,0.2-0.8,0.4-1.1,0.7v5.6h1.3v1.6h-4.4v-1.6h1.3v-6.3h-1.3L88.5,15.8L88.5,15.8z"/>
		<path class="st0" d="M106.5,15.8h3v1.6h-0.4l1.7,6.1l2.3-7.6h1.4l2.2,7.6l1.7-6h-0.5v-1.6h3v1.6H120l-2.6,8.1h-1.6l-2.2-7.6
			l-2.1,7.6h-1.6l-2.6-8.1h-0.8C106.5,17.4,106.5,15.8,106.5,15.8z"/>
		<path class="st0" d="M122.1,20.6c0-0.8,0.1-1.4,0.4-2.1c0.2-0.6,0.6-1.1,1-1.6c0.4-0.4,0.9-0.8,1.5-1c0.6-0.2,1.2-0.4,1.9-0.4
			c0.7,0,1.3,0.1,1.9,0.4c0.6,0.2,1.1,0.6,1.5,1s0.7,1,1,1.6s0.3,1.3,0.3,2.1c0,0.7-0.1,1.4-0.3,2c-0.2,0.6-0.6,1.2-1,1.6
			s-0.9,0.8-1.5,1c-0.6,0.2-1.2,0.4-1.9,0.4c-0.7,0-1.4-0.1-1.9-0.4c-0.6-0.2-1.1-0.6-1.5-1c-0.4-0.4-0.7-1-1-1.6
			S122.1,21.3,122.1,20.6z M123.9,20.6c0,0.5,0.1,1,0.2,1.5c0.2,0.4,0.4,0.8,0.6,1.1c0.3,0.3,0.6,0.5,0.9,0.7s0.7,0.3,1.1,0.3
			c0.4,0,0.8-0.1,1.2-0.2c0.4-0.2,0.7-0.4,0.9-0.7s0.5-0.7,0.6-1.1c0.2-0.4,0.2-0.9,0.2-1.5c0-0.6-0.1-1.1-0.2-1.5
			c-0.2-0.4-0.4-0.8-0.6-1.1c-0.3-0.3-0.6-0.5-0.9-0.7s-0.8-0.2-1.2-0.2c-0.4,0-0.8,0.1-1.1,0.2s-0.7,0.4-0.9,0.7
			c-0.3,0.3-0.5,0.7-0.6,1.1C124,19.5,123.9,20,123.9,20.6z"/>
		<path class="st0" d="M140.3,17.8h-1.7v-0.6c-0.2,0-0.4,0-0.6,0.1c-0.2,0.1-0.4,0.2-0.6,0.3c-0.2,0.2-0.3,0.4-0.5,0.6
			c-0.1,0.2-0.2,0.5-0.3,0.9v4.6h1.6v1.6h-4.7v-1.6h1.3l0-6.3h-1.3v-1.6h3v1.3c0.1-0.2,0.2-0.4,0.4-0.5c0.1-0.2,0.3-0.3,0.5-0.4
			s0.4-0.2,0.6-0.3s0.4-0.1,0.7-0.1c0.3,0,0.6,0,0.9,0c0.3,0,0.6,0,0.8,0L140.3,17.8L140.3,17.8z"/>
		<path class="st0" d="M142.2,11.1h3.3v1.6h0v7.1h1.6l2.3-2.3h-0.6v-1.6h3.6v1.6h-1.2l-2.9,3l3.1,3.4h1.1v1.6h-2l-3.9-4.2h-1.3v2.7
			h0.8v1.6h-4.1v-1.6h1.6V12.7h-1.6L142.2,11.1L142.2,11.1z"/>
	</g>
	<g>
		<path class="st0" d="M60.1,31.2h2v3.9h0c0.1-0.1,0.2-0.2,0.4-0.3c0.1-0.1,0.3-0.2,0.5-0.3c0.2-0.1,0.3-0.1,0.5-0.2
			c0.2,0,0.4-0.1,0.5-0.1c0.3,0,0.6,0,0.9,0.1s0.5,0.2,0.7,0.4c0.2,0.2,0.3,0.4,0.4,0.7c0.1,0.3,0.2,0.7,0.2,1.1v3h1v1h-3v-1H65
			v-2.9c0-0.5-0.1-0.9-0.4-1.1c-0.2-0.3-0.6-0.4-1.1-0.4c-0.3,0-0.5,0.1-0.8,0.2s-0.5,0.3-0.8,0.5v3.7H63v1h-3v-1h1v-7.4h-0.9
			L60.1,31.2L60.1,31.2z"/>
		<path class="st0" d="M69.3,37.7c0,0.2,0,0.3,0,0.5s0.1,0.3,0.1,0.4c0.2,0.4,0.4,0.7,0.7,0.9c0.3,0.2,0.7,0.3,1.1,0.3
			c0.3,0,0.7,0,1-0.1c0.3-0.1,0.6-0.2,1-0.4l0.5,0.8c-0.4,0.3-0.8,0.5-1.3,0.6c-0.4,0.1-0.9,0.2-1.3,0.2c-0.4,0-0.8-0.1-1.2-0.2
			c-0.4-0.1-0.7-0.4-0.9-0.6c-0.3-0.3-0.5-0.6-0.6-1s-0.2-0.9-0.2-1.5c0-0.5,0.1-0.9,0.2-1.3c0.1-0.4,0.3-0.8,0.6-1s0.6-0.5,0.9-0.7
			c0.4-0.2,0.8-0.3,1.3-0.3c0.5,0,0.9,0.1,1.2,0.2s0.6,0.3,0.8,0.6c0.2,0.2,0.4,0.5,0.5,0.8s0.2,0.6,0.2,0.9c0,0.2,0,0.3,0,0.5
			c0,0.2,0,0.3,0,0.5L69.3,37.7L69.3,37.7z M71.1,35.2c-0.3,0-0.5,0-0.7,0.1s-0.4,0.2-0.5,0.3s-0.2,0.3-0.3,0.5
			c-0.1,0.2-0.1,0.4-0.2,0.7h3.3c0-0.2-0.1-0.5-0.1-0.7c-0.1-0.2-0.1-0.4-0.3-0.5s-0.3-0.3-0.5-0.3C71.6,35.2,71.4,35.2,71.1,35.2z"
			/>
		<path class="st0" d="M79.1,40.1c-0.2,0.2-0.5,0.4-0.8,0.5c-0.3,0.1-0.6,0.2-1,0.2c-0.3,0-0.6,0-0.9-0.1c-0.3-0.1-0.5-0.2-0.7-0.4
			s-0.3-0.4-0.4-0.6c-0.1-0.2-0.2-0.5-0.2-0.7c0-0.3,0-0.5,0.1-0.7c0.1-0.2,0.2-0.4,0.3-0.5c0.1-0.2,0.3-0.3,0.5-0.4
			c0.2-0.1,0.4-0.2,0.6-0.3c0.2-0.1,0.4-0.1,0.6-0.1s0.4,0,0.6,0c0.3,0,0.5,0,0.7,0c0.2,0,0.4,0,0.5,0.1l0-0.5c0-0.2,0-0.4-0.1-0.6
			s-0.2-0.3-0.3-0.4c-0.1-0.1-0.3-0.2-0.4-0.2s-0.3-0.1-0.6-0.1c-0.2,0-0.4,0-0.5,0c-0.2,0-0.3,0.1-0.5,0.1c-0.2,0-0.3,0.1-0.4,0.1
			s-0.2,0.1-0.3,0.2l-0.4-0.8c0.2-0.1,0.3-0.2,0.5-0.3c0.2-0.1,0.4-0.2,0.6-0.2c0.2-0.1,0.4-0.1,0.6-0.1c0.2,0,0.4-0.1,0.6-0.1
			c0.4,0,0.7,0,1,0.1c0.3,0.1,0.5,0.2,0.7,0.4s0.4,0.4,0.5,0.7c0.1,0.3,0.2,0.6,0.2,1l0,3.2H81v1h-1.8L79.1,40.1L79.1,40.1z
			 M77.6,39.9c0.2,0,0.3,0,0.5-0.1c0.2,0,0.3-0.1,0.4-0.1c0.1-0.1,0.3-0.1,0.4-0.2c0.1-0.1,0.2-0.2,0.3-0.3l0-1.4h-1.3
			c-0.2,0-0.4,0-0.6,0.1c-0.2,0-0.3,0.1-0.5,0.2s-0.2,0.2-0.3,0.3c-0.1,0.1-0.1,0.3-0.1,0.5c0,0.2,0,0.3,0.1,0.4
			c0.1,0.1,0.1,0.2,0.3,0.3c0.1,0.1,0.2,0.1,0.4,0.2C77.2,39.9,77.4,39.9,77.6,39.9z"/>
		<path class="st0" d="M82.2,31.2h2.1v8.4h1v1h-3v-1h0.9v-7.4h-0.9V31.2z"/>
		<path class="st0" d="M88.1,34.4h1.5v0.9h-1.5l0,3.7c0,0.2,0,0.4,0.1,0.6c0.1,0.2,0.1,0.3,0.3,0.3s0.3,0.1,0.4,0.1
			c0.2,0,0.3,0,0.5,0c0.1,0,0.3-0.1,0.4-0.2l0.3,0.8c-0.2,0.1-0.4,0.2-0.6,0.2c-0.2,0.1-0.5,0.1-0.8,0.1c-0.3,0-0.5,0-0.7-0.1
			s-0.4-0.2-0.5-0.3c-0.1-0.2-0.2-0.4-0.3-0.6s-0.1-0.6-0.1-1l0-3.5h-1v-0.9h1v-1.5l1.1-0.5L88.1,34.4L88.1,34.4z"/>
		<path class="st0" d="M91,31.2h2v3.9h0c0.1-0.1,0.2-0.2,0.4-0.3s0.3-0.2,0.5-0.3s0.3-0.1,0.5-0.2c0.2,0,0.4-0.1,0.5-0.1
			c0.3,0,0.6,0,0.9,0.1s0.5,0.2,0.7,0.4s0.3,0.4,0.4,0.7c0.1,0.3,0.2,0.7,0.2,1.1v3h1v1h-3v-1H96v-2.9c0-0.5-0.1-0.9-0.4-1.1
			c-0.2-0.3-0.6-0.4-1.1-0.4c-0.3,0-0.5,0.1-0.8,0.2s-0.5,0.3-0.8,0.5v3.7H94v1h-3v-1h1v-7.4H91L91,31.2L91,31.2z"/>
		<path class="st0" d="M103.8,36.1c-0.2-0.3-0.4-0.5-0.7-0.7c-0.3-0.1-0.6-0.2-0.9-0.2c-0.3,0-0.5,0.1-0.7,0.2
			c-0.2,0.1-0.4,0.3-0.6,0.5c-0.2,0.2-0.3,0.5-0.4,0.7s-0.1,0.6-0.1,1c0,0.4,0.1,0.7,0.1,1s0.2,0.5,0.4,0.7s0.4,0.4,0.6,0.5
			c0.2,0.1,0.5,0.2,0.7,0.2c0.4,0,0.7-0.1,1-0.3s0.5-0.5,0.7-0.8l0.9,0.5c-0.1,0.3-0.3,0.5-0.5,0.7c-0.2,0.2-0.4,0.4-0.6,0.5
			c-0.2,0.1-0.5,0.3-0.7,0.3c-0.3,0.1-0.6,0.1-0.9,0.1c-0.4,0-0.8-0.1-1.2-0.2s-0.7-0.4-1-0.7c-0.3-0.3-0.5-0.7-0.6-1.1
			c-0.2-0.4-0.2-0.9-0.2-1.3s0.1-0.9,0.2-1.3c0.2-0.4,0.4-0.8,0.7-1.1c0.3-0.3,0.6-0.5,1-0.7c0.4-0.2,0.8-0.3,1.2-0.3
			c0.4,0,0.8,0.1,1.1,0.2c0.4,0.1,0.7,0.3,0.9,0.6h0.6v1C104.9,36.1,103.8,36.1,103.8,36.1z"/>
		<path class="st0" d="M109.8,40.1c-0.2,0.2-0.5,0.4-0.8,0.5c-0.3,0.1-0.6,0.2-1,0.2c-0.3,0-0.6,0-0.9-0.1c-0.3-0.1-0.5-0.2-0.7-0.4
			s-0.3-0.4-0.4-0.6c-0.1-0.2-0.2-0.5-0.2-0.7c0-0.3,0-0.5,0.1-0.7c0.1-0.2,0.2-0.4,0.3-0.5c0.1-0.2,0.3-0.3,0.5-0.4
			c0.2-0.1,0.4-0.2,0.6-0.3c0.2-0.1,0.4-0.1,0.6-0.1s0.4,0,0.6,0c0.3,0,0.5,0,0.7,0c0.2,0,0.4,0,0.5,0.1l0-0.5c0-0.2,0-0.4-0.1-0.6
			s-0.2-0.3-0.3-0.4c-0.1-0.1-0.3-0.2-0.4-0.2s-0.3-0.1-0.6-0.1c-0.2,0-0.4,0-0.5,0c-0.2,0-0.3,0.1-0.5,0.1c-0.2,0-0.3,0.1-0.4,0.1
			s-0.2,0.1-0.3,0.2l-0.4-0.8c0.2-0.1,0.3-0.2,0.5-0.3c0.2-0.1,0.4-0.2,0.6-0.2c0.2-0.1,0.4-0.1,0.6-0.1c0.2,0,0.4-0.1,0.6-0.1
			c0.4,0,0.7,0,1,0.1c0.3,0.1,0.5,0.2,0.7,0.4s0.4,0.4,0.5,0.7c0.1,0.3,0.2,0.6,0.2,1l0,3.2h0.7v1h-1.8L109.8,40.1L109.8,40.1z
			 M108.2,39.9c0.2,0,0.3,0,0.5-0.1c0.2,0,0.3-0.1,0.4-0.1c0.1-0.1,0.3-0.1,0.4-0.2c0.1-0.1,0.2-0.2,0.3-0.3l0-1.4h-1.3
			c-0.2,0-0.4,0-0.6,0.1c-0.2,0-0.3,0.1-0.5,0.2s-0.2,0.2-0.3,0.3c-0.1,0.1-0.1,0.3-0.1,0.5c0,0.2,0,0.3,0.1,0.4
			c0.1,0.1,0.1,0.2,0.3,0.3c0.1,0.1,0.2,0.1,0.4,0.2C107.9,39.9,108,39.9,108.2,39.9z"/>
		<path class="st0" d="M117.4,35.7h-1.2v-0.4c-0.1,0-0.3,0-0.4,0.1c-0.1,0.1-0.3,0.1-0.4,0.2c-0.1,0.1-0.2,0.2-0.3,0.4
			c-0.1,0.2-0.2,0.4-0.2,0.6v3.1h1.1v1h-3.1v-1h0.9l0-4.2h-0.9v-1h2v0.9c0.1-0.1,0.2-0.3,0.2-0.4c0.1-0.1,0.2-0.2,0.3-0.3
			c0.1-0.1,0.2-0.1,0.4-0.2c0.1,0,0.3-0.1,0.4-0.1c0.2,0,0.4,0,0.6,0s0.4,0,0.6,0L117.4,35.7L117.4,35.7z"/>
		<path class="st0" d="M119.8,37.7c0,0.2,0,0.3,0,0.5s0.1,0.3,0.1,0.4c0.2,0.4,0.4,0.7,0.7,0.9c0.3,0.2,0.7,0.3,1.1,0.3
			c0.3,0,0.7,0,1-0.1c0.3-0.1,0.6-0.2,1-0.4l0.5,0.8c-0.4,0.3-0.8,0.5-1.3,0.6c-0.4,0.1-0.9,0.2-1.3,0.2c-0.4,0-0.8-0.1-1.2-0.2
			c-0.4-0.1-0.7-0.4-0.9-0.6c-0.3-0.3-0.5-0.6-0.6-1s-0.2-0.9-0.2-1.5c0-0.5,0.1-0.9,0.2-1.3c0.1-0.4,0.3-0.8,0.6-1s0.6-0.5,0.9-0.7
			c0.4-0.2,0.8-0.3,1.3-0.3c0.5,0,0.9,0.1,1.2,0.2s0.6,0.3,0.8,0.6c0.2,0.2,0.4,0.5,0.5,0.8s0.2,0.6,0.2,0.9c0,0.2,0,0.3,0,0.5
			c0,0.2,0,0.3,0,0.5L119.8,37.7L119.8,37.7z M121.6,35.2c-0.3,0-0.5,0-0.7,0.1s-0.4,0.2-0.5,0.3s-0.2,0.3-0.3,0.5
			c-0.1,0.2-0.1,0.4-0.2,0.7h3.3c0-0.2-0.1-0.5-0.1-0.7c-0.1-0.2-0.1-0.4-0.3-0.5s-0.3-0.3-0.5-0.3
			C122.1,35.2,121.9,35.2,121.6,35.2z"/>
	</g>
</g>
</svg>
